<svg width="153" height="30" viewBox="0 0 153 30" fill="none" xmlns="http://www.w3.org/2000/svg">
<path d="M38.8878 23.5V4.5422H43.3294L49.1251 16.4856H49.1521L54.8936 4.5422H59.3352V23.5H55.679V10.6358H55.6519L50.6417 20.7917H47.5813L42.5711 10.6358H42.544V23.5H38.8878ZM67.2395 23.825C66.1201 23.825 65.1902 23.6444 64.45 23.2833C63.7097 22.9222 63.159 22.4348 62.7979 21.8209C62.4549 21.207 62.2834 20.5299 62.2834 19.7897C62.2834 18.9592 62.491 18.237 62.9063 17.6231C63.3396 16.9912 63.9896 16.4946 64.8562 16.1335C65.7229 15.7724 66.8152 15.5919 68.1332 15.5919H71.5185C71.5185 14.9419 71.4192 14.4093 71.2206 13.994C71.0401 13.5607 70.7512 13.2357 70.354 13.019C69.9748 12.8024 69.4873 12.6941 68.8915 12.6941C68.1874 12.6941 67.5825 12.8566 67.077 13.1815C66.5895 13.4885 66.2916 13.9579 66.1833 14.5898H62.6084C62.7167 13.5968 63.0507 12.7392 63.6104 12.017C64.1701 11.2948 64.9104 10.7351 65.8312 10.3379C66.752 9.94066 67.7721 9.74206 68.8915 9.74206C70.1915 9.74206 71.3019 9.95872 72.2227 10.392C73.1615 10.8073 73.8837 11.4302 74.3893 12.2607C74.9129 13.0732 75.1747 14.0662 75.1747 15.2398V23.5H72.0873L71.7081 21.4146H71.681C71.4644 21.7757 71.2116 22.1098 70.9227 22.4167C70.6519 22.7056 70.3269 22.9583 69.9477 23.175C69.5866 23.3736 69.1804 23.5271 68.729 23.6354C68.2776 23.7618 67.7811 23.825 67.2395 23.825ZM68.1874 21.0084C68.6749 21.0084 69.0991 20.9272 69.4602 20.7647C69.8394 20.5841 70.1554 20.3494 70.4081 20.0605C70.679 19.7716 70.8956 19.4376 71.0581 19.0585C71.2206 18.6793 71.3199 18.2731 71.356 17.8397H68.5394C67.9978 17.8397 67.5464 17.912 67.1853 18.0564C66.8242 18.1828 66.5624 18.3724 66.3999 18.6251C66.2374 18.8599 66.1562 19.1397 66.1562 19.4647C66.1562 19.7897 66.2374 20.0695 66.3999 20.3043C66.5624 20.539 66.7971 20.7195 67.1041 20.8459C67.411 20.9542 67.7721 21.0084 68.1874 21.0084ZM78.2138 23.5V10.067H81.4367L81.7887 12.667C82.1498 12.017 82.5651 11.4753 83.0345 11.042C83.504 10.6087 84.0456 10.2837 84.6595 10.067C85.2914 9.85039 85.9775 9.74206 86.7178 9.74206V13.6149H85.7157C85.1379 13.6149 84.6144 13.6781 84.1449 13.8044C83.6755 13.9308 83.2693 14.1385 82.9262 14.4273C82.5832 14.7162 82.3214 15.1134 82.1408 15.619C81.9603 16.1065 81.87 16.7203 81.87 17.4606V23.5H78.2138ZM97.8644 23.5L91.9874 16.1065L97.1602 10.067H101.493L94.804 17.6231L94.7769 14.7252L102.414 23.5H97.8644ZM88.8729 23.5V4.10888H92.5291V23.5H88.8729ZM109.815 23.825C108.425 23.825 107.197 23.5361 106.132 22.9583C105.085 22.3806 104.263 21.5681 103.667 20.5209C103.09 19.4737 102.801 18.2731 102.801 16.9189C102.801 15.5106 103.09 14.2739 103.667 13.2086C104.245 12.1253 105.058 11.2767 106.105 10.6629C107.17 10.049 108.407 9.74206 109.815 9.74206C111.151 9.74206 112.325 10.0309 113.336 10.6087C114.365 11.1865 115.168 11.9809 115.746 12.992C116.324 13.985 116.613 15.1134 116.613 16.3773C116.613 16.5578 116.604 16.7655 116.586 17.0002C116.586 17.2168 116.568 17.4425 116.532 17.6772H105.401V15.4294H112.903C112.848 14.5989 112.532 13.9399 111.955 13.4524C111.377 12.9468 110.664 12.6941 109.815 12.6941C109.201 12.6941 108.624 12.8385 108.082 13.1274C107.558 13.3982 107.143 13.8135 106.836 14.3732C106.547 14.9329 106.403 15.637 106.403 16.4856V17.271C106.403 17.9932 106.538 18.6251 106.809 19.1668C107.098 19.7084 107.504 20.1237 108.028 20.4126C108.551 20.7015 109.138 20.8459 109.788 20.8459C110.438 20.8459 110.989 20.7015 111.44 20.4126C111.891 20.1057 112.235 19.7175 112.469 19.248H116.207C115.954 20.0966 115.521 20.873 114.907 21.5771C114.311 22.2632 113.58 22.8139 112.713 23.2292C111.846 23.6264 110.88 23.825 109.815 23.825ZM125.169 23.5C124.212 23.5 123.373 23.3556 122.651 23.0667C121.946 22.7597 121.396 22.2632 120.999 21.5771C120.601 20.873 120.403 19.9161 120.403 18.7064V13.1003H118.101V10.067H120.403L120.809 6.4109H124.059V10.067H127.634V13.1003H124.059V18.7606C124.059 19.3744 124.194 19.8077 124.465 20.0605C124.736 20.2952 125.196 20.4126 125.846 20.4126H127.553V23.5H125.169ZM130.317 23.5V4.10888H133.973V23.5H130.317ZM139.06 29.3498L142.364 21.9834H141.551L136.054 10.067H140.035L143.962 18.6793H143.989L147.483 10.067H151.382L142.933 29.3498H139.06Z" fill="white"/>
<rect x="0.118164" y="17.8999" width="6.92744" height="10.7689" rx="3.46372" fill="white"/>
<rect x="0.118164" y="1.41675" width="6.92744" height="6.92744" rx="3.46372" fill="white"/>
<rect x="10.1973" y="9.43359" width="6.92744" height="19.2353" rx="3.46372" fill="white"/>
<rect x="20.2764" y="1.41675" width="6.92744" height="27.252" rx="3.46372" fill="white"/>
</svg>
